<svg xmlns="http://www.w3.org/2000/svg" width="13.237" height="19.138" viewBox="0 0 13.237 19.138"><g transform="translate(-1243 -119)"><path d="M920.821,250h-.4a3.493,3.493,0,0,1-2.4-.908,3.264,3.264,0,0,1-1.012-2.42l.008-8.429c0-1.88,1.106-3.243,2.618-3.243h.171a2.378,2.378,0,0,1,1.936,1.006,3.779,3.779,0,0,1,.672,2.25l-.02,7.941a2.218,2.218,0,0,1-.445,1.363,1.545,1.545,0,0,1-1.229.62h0a1.723,1.723,0,0,1-1.272-.6,2.08,2.08,0,0,1-.516-1.387l.016-6.347a.448.448,0,0,1,.448-.447h0a.448.448,0,0,1,.447.449l-.016,6.347a1.186,1.186,0,0,0,.291.791.829.829,0,0,0,.6.3h0a.667.667,0,0,0,.525-.277,1.323,1.323,0,0,0,.253-.812l.02-7.941a2.885,2.885,0,0,0-.5-1.715,1.493,1.493,0,0,0-1.219-.643h-.168a1.493,1.493,0,0,0-1.218.637,2.884,2.884,0,0,0-.5,1.712l-.008,8.428a2.4,2.4,0,0,0,2.521,2.432h.4a2.4,2.4,0,0,0,2.521-2.432v-7.031a.448.448,0,0,1,.9,0v7.031a3.265,3.265,0,0,1-1.011,2.42,3.493,3.493,0,0,1-2.405.908Zm0,0" transform="translate(332 -111.862)" fill="#2a7de1"/><g transform="translate(1243 119)" fill="#f47074" stroke="#fff" stroke-width="1.2"><circle cx="4.5" cy="4.5" r="4.5" stroke="none"/><circle cx="4.5" cy="4.5" r="3.9" fill="none"/></g></g></svg>