<svg xmlns="http://www.w3.org/2000/svg" width="15.729" height="18" viewBox="0 0 15.729 18"><path d="M14.664,0H1.066A1.067,1.067,0,0,0,0,1.066V16.935A1.067,1.067,0,0,0,1.066,18h13.6a1.067,1.067,0,0,0,1.066-1.066V1.066A1.067,1.067,0,0,0,14.664,0ZM1.066.853h13.6a.213.213,0,0,1,.213.213V4.761H.853V1.066A.213.213,0,0,1,1.066.853Zm8.852,16.3H5.811V11.806H9.918Zm0-6.195H5.811V5.613H9.918ZM.853,5.613H4.959v5.34H.853Zm0,11.321V11.806H4.959v5.342H1.066A.213.213,0,0,1,.853,16.935Zm13.811.213H10.77V5.613h4.107V16.934A.213.213,0,0,1,14.664,17.148Z" fill="#fff"/><path d="M43.093,194.564h-.628v-.628a.426.426,0,1,0-.852,0v.628h-.628a.426.426,0,0,0,0,.852h.628v.628a.426.426,0,1,0,.852,0v-.628h.628a.426.426,0,0,0,0-.852Z" transform="translate(-39.134 -186.707)" fill="#fff"/><path d="M181.436,224.342h2.15a.426.426,0,0,0,0-.852h-2.15a.426.426,0,1,0,0,.852Z" transform="translate(-174.646 -215.633)" fill="#fff"/><path d="M49.167,377.724l.514-.514a.426.426,0,0,0-.6-.6l-.514.514-.514-.514a.426.426,0,0,0-.6.6l.514.514-.514.514a.426.426,0,1,0,.6.6l.514-.514.514.514a.426.426,0,0,0,.6-.6Z" transform="translate(-45.659 -363.247)" fill="#fff"/><path d="M188.489,378.832a.426.426,0,0,0,.6,0l1.632-1.632a.426.426,0,1,0-.6-.6l-1.632,1.632A.426.426,0,0,0,188.489,378.832Z" transform="translate(-181.741 -363.237)" fill="#fff"/><ellipse cx="0.364" cy="0.364" rx="0.364" ry="0.364" transform="translate(6.685 13.298)" fill="#fff"/><ellipse cx="0.364" cy="0.364" rx="0.364" ry="0.364" transform="translate(8.317 14.93)" fill="#fff"/><path d="M323.9,290.42h-2.179a.426.426,0,1,0,0,.852H323.9a.426.426,0,1,0,0-.852Z" transform="translate(-310.004 -280.21)" fill="#fff"/><path d="M323.9,332.74h-2.179a.426.426,0,0,0,0,.852H323.9a.426.426,0,0,0,0-.852Z" transform="translate(-310.004 -321.042)" fill="#fff"/></svg>