<svg id="Group_2873" data-name="Group 2873" xmlns="http://www.w3.org/2000/svg" viewBox="0 0 59.725 35.685">
  <defs>
    <style>
      .cls-1 {
        fill: #989a9c;
      }
    </style>
  </defs>
  <path id="Path_449" data-name="Path 449" class="cls-1" d="M72.8,48.03H52.275a.875.875,0,0,0-.875.875V66.164a.875.875,0,0,0,.875.875H72.8a.874.874,0,0,0,.875-.875V48.9a.874.874,0,0,0-.875-.875Zm-.875,1.749v7.356L66.564,61.8,59.525,56.41a1.329,1.329,0,0,0-1.679.056l-4.7,4.121V49.779ZM53.149,65.289V62.915l5.589-4.9,9.513,7.278h-15.1Zm18.775,0h-.8l-3.148-2.408,3.943-3.427Zm0,0" transform="translate(-45.406 -42.429)"/>
  <path id="Path_450" data-name="Path 450" class="cls-1" d="M163.861,75.541a3.08,3.08,0,1,0-3.081-3.081,3.084,3.084,0,0,0,3.081,3.081Zm0-4.413a1.331,1.331,0,1,1-1.332,1.331,1.332,1.332,0,0,1,1.332-1.331Zm0,0" transform="translate(-142.03 -61.289)"/>
  <path id="Path_451" data-name="Path 451" class="cls-1" d="M280.075,111.249H299.2a.875.875,0,1,0,0-1.749H280.075a.875.875,0,1,0,0,1.749Zm0,0" transform="translate(-246.64 -96.73)"/>
  <path id="Path_452" data-name="Path 452" class="cls-1" d="M280.075,68.7h9.56a.875.875,0,0,0,0-1.749h-9.56a.875.875,0,1,0,0,1.749Zm0,0" transform="translate(-246.64 -59.142)"/>
  <path id="Path_453" data-name="Path 453" class="cls-1" d="M280.075,147.249H299.2a.875.875,0,1,0,0-1.749H280.075a.875.875,0,1,0,0,1.749Zm0,0" transform="translate(-246.64 -128.532)"/>
  <path id="Path_454" data-name="Path 454" class="cls-1" d="M280.075,183.249H299.2a.875.875,0,1,0,0-1.749H280.075a.875.875,0,1,0,0,1.749Zm0,0" transform="translate(-246.64 -160.334)"/>
  <path id="Path_455" data-name="Path 455" class="cls-1" d="M57.47,237.265a.874.874,0,0,0,.875.875h44.978a.875.875,0,1,0,0-1.749H58.345a.875.875,0,0,0-.875.875Zm0,0" transform="translate(-50.768 -208.823)"/>
  <g id="Group_2872" data-name="Group 2872">
    <path id="Path_456" data-name="Path 456" class="cls-1" d="M58.908,35.685H.816A.816.816,0,0,1,0,34.869V.816A.816.816,0,0,1,.816,0H58.908a.816.816,0,0,1,.816.816V34.869A.816.816,0,0,1,58.908,35.685ZM1.633,34.052H58.092V1.633H1.633Z"/>
  </g>
</svg>
