<svg xmlns="http://www.w3.org/2000/svg" viewBox="0 0 15.3 15.3"><defs><style>.a{fill:#fff;stroke:#fff;stroke-width:0.3px;}</style></defs><g transform="translate(0.15 0.15)"><path class="a" d="M8.17,15H6.83a.791.791,0,0,1-.778-.669c-.042-.282-.083-.571-.12-.861A.086.086,0,0,0,5.87,13.4a6.087,6.087,0,0,1-1.388-.575.086.086,0,0,0-.094.008c-.231.178-.465.354-.694.524a.791.791,0,0,1-1.023-.077l-.948-.948a.791.791,0,0,1-.077-1.023c.17-.229.346-.463.524-.694a.085.085,0,0,0,.008-.094A6.093,6.093,0,0,1,1.6,9.129a.085.085,0,0,0-.072-.061C1.24,9.031.951,8.99.669,8.948A.79.79,0,0,1,0,8.17V6.83a.791.791,0,0,1,.669-.778c.282-.042.572-.083.861-.12a.085.085,0,0,0,.072-.06,6.085,6.085,0,0,1,.575-1.388.086.086,0,0,0-.008-.094c-.178-.231-.354-.464-.524-.694a.791.791,0,0,1,.077-1.023l.948-.948a.791.791,0,0,1,1.023-.077c.229.169.463.346.694.524a.086.086,0,0,0,.095.008A6.087,6.087,0,0,1,5.871,1.6a.085.085,0,0,0,.061-.072c.038-.289.078-.579.12-.861A.79.79,0,0,1,6.829,0H8.17a.791.791,0,0,1,.778.669c.042.282.083.571.12.861a.085.085,0,0,0,.061.072,6.08,6.08,0,0,1,1.388.575.086.086,0,0,0,.094-.008c.231-.178.465-.354.694-.524a.791.791,0,0,1,1.023.077l.948.948a.791.791,0,0,1,.077,1.023c-.17.229-.346.463-.524.694a.085.085,0,0,0-.008.094A6.093,6.093,0,0,1,13.4,5.871a.084.084,0,0,0,.072.06c.289.038.579.078.861.12A.79.79,0,0,1,15,6.83V8.17a.791.791,0,0,1-.669.778c-.282.042-.572.083-.861.12a.086.086,0,0,0-.072.061,6.085,6.085,0,0,1-.575,1.388.086.086,0,0,0,.008.094c.178.231.354.465.524.694a.791.791,0,0,1-.077,1.023l-.948.948a.791.791,0,0,1-1.023.077c-.229-.169-.463-.346-.694-.524a.086.086,0,0,0-.094-.008,6.087,6.087,0,0,1-1.388.575.085.085,0,0,0-.061.072c-.038.289-.078.579-.12.861A.79.79,0,0,1,8.17,15ZM4.441,12.111a.782.782,0,0,1,.387.1,5.387,5.387,0,0,0,1.228.509.784.784,0,0,1,.569.657c.037.285.077.57.119.848a.086.086,0,0,0,.085.072H8.17a.086.086,0,0,0,.085-.072c.042-.278.081-.563.119-.848a.784.784,0,0,1,.569-.657,5.387,5.387,0,0,0,1.228-.509.785.785,0,0,1,.867.062c.228.175.458.349.683.516a.086.086,0,0,0,.111-.009l.948-.948a.086.086,0,0,0,.009-.111c-.167-.226-.341-.456-.516-.683a.784.784,0,0,1-.062-.867,5.387,5.387,0,0,0,.509-1.228.784.784,0,0,1,.657-.569c.285-.037.57-.077.848-.119A.086.086,0,0,0,14.3,8.17V6.83a.086.086,0,0,0-.072-.085c-.278-.042-.563-.081-.848-.119a.783.783,0,0,1-.657-.569,5.387,5.387,0,0,0-.509-1.228.785.785,0,0,1,.062-.867c.175-.228.349-.458.516-.683a.086.086,0,0,0-.009-.111l-.948-.949a.085.085,0,0,0-.111-.009c-.226.167-.456.34-.683.516a.784.784,0,0,1-.867.062,5.392,5.392,0,0,0-1.228-.509.784.784,0,0,1-.569-.657c-.037-.285-.077-.57-.119-.848A.086.086,0,0,0,8.17.7H6.83a.086.086,0,0,0-.085.072c-.042.277-.081.562-.119.848a.784.784,0,0,1-.569.657,5.4,5.4,0,0,0-1.229.509.785.785,0,0,1-.867-.062c-.228-.175-.458-.349-.683-.516a.086.086,0,0,0-.111.009l-.948.948a.086.086,0,0,0-.009.111c.168.226.341.456.516.683a.784.784,0,0,1,.062.867,5.4,5.4,0,0,0-.509,1.228.784.784,0,0,1-.657.569c-.284.037-.57.077-.848.119A.086.086,0,0,0,.7,6.829V8.17a.086.086,0,0,0,.072.085c.278.042.563.081.848.119a.784.784,0,0,1,.657.569,5.379,5.379,0,0,0,.509,1.228.785.785,0,0,1-.062.867c-.175.228-.349.458-.516.683a.086.086,0,0,0,.009.111l.948.948a.086.086,0,0,0,.111.009c.226-.167.456-.34.683-.516A.79.79,0,0,1,4.441,12.111Z"/><path class="a" d="M147.828,150.786a2.958,2.958,0,1,1,2.958-2.958A2.961,2.961,0,0,1,147.828,150.786Zm0-5.28a2.322,2.322,0,1,0,2.322,2.322A2.324,2.324,0,0,0,147.828,145.506Z" transform="translate(-140.328 -140.328)"/></g></svg>