<svg xmlns="http://www.w3.org/2000/svg" viewBox="0 0 14.057 15.082"><defs><style>.a{fill:#2a7de1;}</style></defs><path class="a" d="M9.943,2.264V.984A.986.986,0,0,0,8.959,0H5.1a.985.985,0,0,0-.984.984v1.28H0V3.445H1.231l.976,11.1a.591.591,0,0,0,.588.539h8.446a.591.591,0,0,0,.588-.539l.976-11.1h1.251V2.264ZM5.3,1.181H8.761V2.264H5.3ZM10.7,13.9H3.337L2.417,3.445h9.2Z"/><rect class="a" width="6.994" height="1.181" transform="matrix(0.037, -0.999, 0.999, 0.037, 8.466, 12.146)"/><rect class="a" width="1.181" height="6.994" transform="matrix(0.999, -0.037, 0.037, 0.999, 4.154, 5.199)"/><rect class="a" width="1.181" height="6.989" transform="translate(6.438 5.178)"/></svg>