<svg xmlns="http://www.w3.org/2000/svg" xmlns:xlink="http://www.w3.org/1999/xlink" viewBox="0 0 38.187 46.143">
  <defs>
    <style>
      .cls-1 {
        fill: #989b9c;
      }

      .cls-2 {
        clip-path: url(#clip-path);
      }
    </style>
    <clipPath id="clip-path">
      <rect id="Rectangle_20134" data-name="Rectangle 20134" class="cls-1" width="38.187" height="46.143"/>
    </clipPath>
  </defs>
  <g id="Group_2861" data-name="Group 2861" transform="translate(0)">
    <g id="Group_2860" data-name="Group 2860">
      <g id="Group_2859" data-name="Group 2859" class="cls-2">
        <path id="Path_447" data-name="Path 447" class="cls-1" d="M102.479,8.842l5.791-5.353V28.347a1.06,1.06,0,1,0,2.12,0V3.489l5.791,5.353a1.06,1.06,0,1,0,1.439-1.557l-7.571-7a1.06,1.06,0,0,0-1.439,0l-7.571,7a1.06,1.06,0,1,0,1.439,1.556Zm0,0" transform="translate(-90.01 -0.004)"/>
      </g>
    </g>
    <path id="Path_448" data-name="Path 448" class="cls-1" d="M32.976,144.65H27.838a1.06,1.06,0,1,0,0,2.12h5.138a3.185,3.185,0,0,1,3.181,3.18v20.2a3.183,3.183,0,0,1-3.181,3.18H5.5a3.183,3.183,0,0,1-3.18-3.18v-20.2a3.183,3.183,0,0,1,3.18-3.18h5.138a1.06,1.06,0,1,0,0-2.12H5.5a5.306,5.306,0,0,0-5.3,5.3v20.2a5.307,5.307,0,0,0,5.3,5.3H32.976a5.307,5.307,0,0,0,5.3-5.3v-20.2a5.306,5.306,0,0,0-5.3-5.3Zm0,0" transform="translate(-0.179 -129.306)"/>
  </g>
</svg>
