<svg xmlns="http://www.w3.org/2000/svg" xmlns:xlink="http://www.w3.org/1999/xlink" viewBox="0 0 15.695 15.041"><defs><style>.a,.c{fill:#2a7de1;}.b{clip-path:url(#a);}.c{fill-rule:evenodd;}</style><clipPath id="a"><rect class="a" width="15.695" height="15.041"/></clipPath></defs><g class="b"><path class="c" d="M14.658,12.569H8.38a.523.523,0,1,0,0,1.046l6.278-.013a.514.514,0,0,0,.523-.51.525.525,0,0,0-.523-.523ZM7.333,1.046h7.324a.523.523,0,0,0,0-1.046H7.333a.523.523,0,1,0,0,1.046Zm.883,8.527a.525.525,0,0,0-.739,0L4.724,12.745V0H3.678V12.765L.905,9.574a.533.533,0,0,0-.745,0,.533.533,0,0,0,0,.745L3.8,14.5a.521.521,0,0,0,.4.15.521.521,0,0,0,.4-.15l3.629-4.179a.527.527,0,0,0-.007-.745Zm6.441-6.428H7.333a.525.525,0,0,0-.523.523.519.519,0,0,0,.523.517h7.324a.52.52,0,1,0,0-1.04Zm0,3.139H7.333a.525.525,0,0,0-.523.523.515.515,0,0,0,.523.517l7.324.007a.523.523,0,0,0,0-1.046Zm0,3.139H10.472a.525.525,0,0,0-.523.523.514.514,0,0,0,.523.51h4.185a.514.514,0,0,0,.523-.51.525.525,0,0,0-.523-.523Zm0,0" transform="translate(-0.003)"/></g></svg>