<svg xmlns="http://www.w3.org/2000/svg" viewBox="0 0 15 15"><defs><style>.a{fill:#f47074;}</style></defs><g transform="translate(-586.313 -380)"><g transform="translate(586.313 380)"><path class="a" d="M364.2,303.758h-1.318v-1.318a.439.439,0,0,0-.879,0V304.2a.439.439,0,0,0,.439.439H364.2a.439.439,0,0,0,0-.879Z" transform="translate(-351.395 -293.152)"/><path class="a" d="M62.2,272H60.439a.439.439,0,1,0,0,.879H62.2a.439.439,0,0,0,0-.879Z" transform="translate(-58.242 -264.031)"/><path class="a" d="M62.2,362H60.439a.439.439,0,1,0,0,.879H62.2a.439.439,0,0,0,0-.879Z" transform="translate(-58.242 -351.395)"/><path class="a" d="M13.682,1.758h-.439V1.318a1.318,1.318,0,1,0-2.637,0v.439H8.848V1.318a1.318,1.318,0,1,0-2.637,0v.439H4.395V1.318a1.318,1.318,0,1,0-2.637,0v.439H1.318A1.32,1.32,0,0,0,0,3.076V12.8a1.32,1.32,0,0,0,1.318,1.318H8.563A3.952,3.952,0,0,0,15,11.045V3.076A1.32,1.32,0,0,0,13.682,1.758Zm-2.2-.439a.439.439,0,1,1,.879,0V3.076a.439.439,0,1,1-.879,0ZM7.529.879a.439.439,0,0,1,.439.439V3.076a.439.439,0,0,1-.879,0V2.2h0V1.318A.439.439,0,0,1,7.529.879Zm-4.893.439a.439.439,0,1,1,.879,0V3.076a.439.439,0,1,1-.879,0ZM1.318,2.637h.439v.439a1.318,1.318,0,0,0,2.637,0V2.637H6.211v.439a1.318,1.318,0,0,0,2.637,0V2.637h1.758v.439a1.318,1.318,0,1,0,2.637,0V2.637h.439a.439.439,0,0,1,.439.439V5.332H.879V3.076A.439.439,0,0,1,1.318,2.637Zm9.727,11.484a3.076,3.076,0,1,1,3.076-3.076A3.08,3.08,0,0,1,11.045,14.121Zm0-7.031a3.928,3.928,0,0,0-2.508.9.474.474,0,0,0-.129-.021H6.65a.438.438,0,1,0,0,.876H7.758a3.947,3.947,0,0,0-.645,1.761H6.65a.439.439,0,1,0,0,.879h.463a3.9,3.9,0,0,0,.645,1.758H1.318A.439.439,0,0,1,.879,12.8V6.211H14.121V8.563A3.944,3.944,0,0,0,11.045,7.09Z"/></g></g></svg>