<svg id="Group_3297" data-name="Group 3297" xmlns="http://www.w3.org/2000/svg" viewBox="0 0 20.731 20.731">
  <defs>
    <style>
      .cls-1 {
        fill: #2a7de1;
      }
    </style>
  </defs>
  <path id="Path_594" data-name="Path 594" class="cls-1" d="M10.365,0A10.366,10.366,0,1,0,20.731,10.366,10.377,10.377,0,0,0,10.365,0Zm0,19.372a9.007,9.007,0,1,1,9.007-9.007,9.016,9.016,0,0,1-9.007,9.007Zm0,0"/>
  <path id="Path_595" data-name="Path 595" class="cls-1" d="M143.946,74.613a.906.906,0,1,0-.906-.906.906.906,0,0,0,.906.906Zm0,0" transform="translate(-133.773 -68.084)"/>
  <path id="Path_596" data-name="Path 596" class="cls-1" d="M133.407,120.319h-.569v-6.48a.679.679,0,0,0-.68-.68H130.91a.68.68,0,1,0,0,1.359h.569v5.8h-.569a.68.68,0,1,0,0,1.359h2.5a.679.679,0,1,0,0-1.359Zm0,0" transform="translate(-121.793 -105.829)"/>
</svg>
