<svg xmlns="http://www.w3.org/2000/svg" width="22" height="22" viewBox="0 0 22 22">
  <g id="Group_3312" data-name="Group 3312" transform="translate(-101 -225.89)">
    <path id="Path_605" data-name="Path 605" d="M261.238,343.917l-6.066-4.149a.466.466,0,0,0-.732.386v8.3a.465.465,0,0,0,.732.386l6.066-4.149a.467.467,0,0,0,0-.772Z" transform="translate(-144.83 -107.413)" fill="#fff"/>
    <path id="Path_606" data-name="Path 606" d="M112,225.89a11,11,0,1,0,11,11,11.012,11.012,0,0,0-11-11Zm0,21.061a10.062,10.062,0,1,1,10.062-10.062A10.071,10.071,0,0,1,112,246.951Zm0,0" transform="translate(0 0)" fill="#2a7de1"/>
  </g>
</svg>
