<svg xmlns="http://www.w3.org/2000/svg" width="559.827" height="315.117" viewBox="0 0 559.827 315.117">
  <g id="Group_3559" data-name="Group 3559" transform="translate(-65 -125)">
    <g id="Rectangle_20487" data-name="Rectangle 20487" transform="translate(65 125)" fill="#686868" stroke="#707070" stroke-width="1">
      <rect width="559.827" height="315.117" stroke="none"/>
      <rect x="0.5" y="0.5" width="558.827" height="314.117" fill="none"/>
    </g>
    <text id="No_image_linked_to_this_step" data-name="No image linked to this step" transform="translate(345 290)" fill="#fff" font-size="14" font-family="Roboto-Regular, Roboto"><tspan x="-86.512" y="0">No image linked to this step</tspan></text>
    <g id="Group_3558" data-name="Group 3558" transform="translate(325 211.333)">
      <path id="Path_661" data-name="Path 661" d="M34.5,51.36a.892.892,0,0,1-.626-.258l-8.586-8.588H6.193A6.2,6.2,0,0,1,0,36.322V16.859a6.2,6.2,0,0,1,6.193-6.192H34.5a6.2,6.2,0,0,1,6.192,6.192V36.322a6.2,6.2,0,0,1-5.308,6.131v8.024a.885.885,0,0,1-.547.817A.907.907,0,0,1,34.5,51.36ZM6.193,12.436a4.428,4.428,0,0,0-4.423,4.423V36.322a4.428,4.428,0,0,0,4.423,4.423H25.655a.891.891,0,0,1,.626.258l7.335,7.337V41.629a.885.885,0,0,1,.885-.885,4.428,4.428,0,0,0,4.423-4.423V16.859A4.428,4.428,0,0,0,34.5,12.436Z" fill="#fff"/>
      <path id="Path_662" data-name="Path 662" d="M215.987,271.975a2.654,2.654,0,1,1,2.654-2.654A2.657,2.657,0,0,1,215.987,271.975Zm0-3.539a.885.885,0,1,0,.885.885A.886.886,0,0,0,215.987,268.436Z" transform="translate(-195.64 -234.769)" fill="#fff"/>
      <path id="Path_663" data-name="Path 663" d="M206.212,88.821a2.79,2.79,0,0,1-2.783-2.581l-.748-8.717a2.657,2.657,0,0,1,2.647-2.856H207.1a2.653,2.653,0,0,1,2.647,2.843l-.763,8.744A2.783,2.783,0,0,1,206.212,88.821Zm-.885-12.385a.882.882,0,0,0-.648.281.872.872,0,0,0-.235.667l.747,8.717a1.016,1.016,0,0,0,2.026.014l.764-8.746a.868.868,0,0,0-.237-.653.882.882,0,0,0-.648-.281Z" transform="translate(-185.865 -58.692)" fill="#fff"/>
    </g>
  </g>
</svg>
