<svg xmlns="http://www.w3.org/2000/svg" xmlns:xlink="http://www.w3.org/1999/xlink" viewBox="0 0 40.353 43.795"><defs><style>.a,.c,.d,.e{fill:url(#a);}.b{fill:none;}.c,.d,.e{stroke:#f5f5f5;}.c{stroke-width:0.8px;}.e{stroke-width:0.5px;}</style><linearGradient id="a" x1="0.5" x2="0.5" y2="1" gradientUnits="objectBoundingBox"><stop offset="0" stop-color="#42e3e8"/><stop offset="1" stop-color="#2a7de1"/></linearGradient></defs><g transform="translate(0.195 0.25)"><path class="a" d="M27.95,405.02" transform="translate(-24.354 -363.781)"/><rect class="b" width="40.005" height="43.295"/><path class="c" d="M196.9,221.667a1.008,1.008,0,0,0-1.108.221l-13.909,13.875a1,1,0,0,0-.221,1.1,1.016,1.016,0,0,0,.953.615h13.914a.953.953,0,0,0,.979-.988V222.615a1,1,0,0,0-.609-.948Zm-1.446,13.757H185.107l10.352-10.331Zm0,0" transform="translate(-165.102 -201.175)"/><path class="d" d="M102.242,324.244a2.745,2.745,0,1,0,1.94-.8,2.746,2.746,0,0,0-1.94.8Zm2.428,2.429a.685.685,0,1,1,.2-.488.689.689,0,0,1-.2.488Zm0,0" transform="translate(-91.329 -292.696)"/><path class="e" d="M39.881,3.646a.813.813,0,0,0-.889.176l-7.879,7.844L31.1,5.685a.825.825,0,0,0-.15-.472L27.5.347a.821.821,0,0,0-1.34,0L22.713,5.213a.833.833,0,0,0-.151.474l0,14.512-4.554,4.551V9.594a.844.844,0,0,0-.861-.806H8.885a.82.82,0,0,0-.833.806V34.6L.777,41.847A.854.854,0,0,0,1.362,43.3H39.575a.843.843,0,0,0,.8-.865V4.4A.808.808,0,0,0,39.881,3.646ZM26.83,2.261l1.859,2.624H24.972ZM24.184,6.528h5.376v6.78l-5.376,5.268ZM9.7,32h.864a.822.822,0,0,0,0-1.643H9.7V28.4h2.627a.822.822,0,0,0,0-1.643H9.7V24.912h.864a.822.822,0,0,0,0-1.643H9.7V21.42h2.627a.822.822,0,0,0,0-1.643H9.7V17.826h.864a.822.822,0,0,0,0-1.643H9.7V14.335h2.627a.822.822,0,0,0,0-1.643H9.7V10.432h6.67V38.469H9.7ZM38.735,13.2H35.252a.822.822,0,0,0,0,1.643h3.483v3.184H37.264a.822.822,0,0,0,0,1.643h1.471v3.594H35.252a.822.822,0,0,0,0,1.643h3.483v3.594H37.264a.822.822,0,0,0,0,1.643h1.471v3.594H35.252a.822.822,0,0,0,0,1.643h3.483v3.184H37.264a.822.822,0,0,0,0,1.643h1.471v1.438H3.353l4.7-4.733v2.386a.811.811,0,0,0,.246.573.831.831,0,0,0,.587.233h8.259a.844.844,0,0,0,.861-.806V27.067L38.735,6.38Z" transform="translate(-0.467)"/></g></svg>