<svg xmlns="http://www.w3.org/2000/svg" viewBox="0 0 12.859 15"><defs><style>.a{fill:#2a7de1;}</style></defs><path class="a" d="M12.847,2.388v-2A.373.373,0,0,0,12.486,0H.37A.37.37,0,0,0,0,.373V2.388c0,.012-.008.023,0,.035s0,.012,0,.015v.019a.035.035,0,0,0,0,.019.029.029,0,0,1,0,.015.167.167,0,0,1,0,.019s0,.012,0,.015,0,.012.008.019,0,.012.008.015,0,.012.008.015a.029.029,0,0,1,.008.015s.008.012.008.015.008.012.012.015.008.008.008.012a.019.019,0,0,1,.012,0L4.693,8.062v6.554a.372.372,0,0,0,.212.346A.384.384,0,0,0,5.066,15a.376.376,0,0,0,.238-.085l2.715-2.2a.374.374,0,0,0,.135-.3V8.062l4.608-5.423a.012.012,0,0,0,.008,0l.012-.012s.008-.012.012-.015.008-.012.012-.015a186212894334.255,186212894334.255,0,0,1,.015-.031s0-.012.008-.015,0-.012.008-.019a.023.023,0,0,0,0-.015.035.035,0,0,0,0-.019c0-.008,0-.012,0-.015a.167.167,0,0,0,0-.019.167.167,0,0,1,0-.019s-.008-.012,0-.015S12.847,2.4,12.847,2.388ZM7.486,7.669a.4.4,0,0,0-.1.25v4.308L5.463,13.808V7.919a.4.4,0,0,0-.1-.25L1.2,2.769H11.647ZM12.078,2H.77V.769H12.078Z" transform="translate(0.004)"/></svg>