<svg xmlns="http://www.w3.org/2000/svg" viewBox="0 0 15.292 15.292"><defs><style>.a,.d{fill:none;}.a{stroke:#2a7de1;}.b{fill:#2a7de1;}.c{stroke:none;}</style></defs><g class="a"><circle class="c" cx="7.646" cy="7.646" r="7.646"/><circle class="d" cx="7.646" cy="7.646" r="7.146"/></g><g transform="translate(3.437 3.437)"><path class="b" d="M7.96,3.622H4.8V.458A.57.57,0,0,0,4.208,0,.569.569,0,0,0,3.62.458V3.622H.458A.568.568,0,0,0,0,4.208.569.569,0,0,0,.458,4.8H3.622V7.96a.568.568,0,0,0,.586.458A.569.569,0,0,0,4.8,7.96V4.8H7.96a.57.57,0,0,0,.458-.588.566.566,0,0,0-.458-.586Zm0,0"/></g></svg>