<?xml version="1.0" encoding="UTF-8"?>
<svg xmlns="http://www.w3.org/2000/svg" xmlns:xlink="http://www.w3.org/1999/xlink" viewBox="0 0 48 48" version="1.1" width="48px" height="48px">
<g id="surface1">
<path style=" fill:#FF6D00;" d="M 40 45 L 8 45 L 8 3 L 30 3 L 40 13 Z "/>
<path style=" fill:#FFF3E0;" d="M 38.5 14 L 29 14 L 29 4.5 Z "/>
<path style=" fill:#FFFFFF;" d="M 22.050781 30.65625 L 22.050781 35 L 18.96875 35 L 18.96875 22.203125 L 24.074219 22.203125 C 25.050781 22.203125 25.917969 22.382813 26.671875 22.742188 C 27.425781 23.101563 28.007813 23.617188 28.421875 24.28125 C 28.832031 24.945313 29.039063 25.699219 29.039063 26.546875 C 29.039063 27.792969 28.59375 28.789063 27.699219 29.535156 C 26.804688 30.285156 25.578125 30.65625 24.019531 30.65625 Z M 22.050781 28.277344 L 24.074219 28.277344 C 24.671875 28.277344 25.128906 28.128906 25.4375 27.828125 C 25.753906 27.527344 25.910156 27.105469 25.910156 26.5625 C 25.910156 25.964844 25.75 25.488281 25.425781 25.128906 C 25.105469 24.769531 24.664063 24.589844 24.109375 24.585938 L 22.050781 24.585938 Z "/>
</g>
</svg>
