<svg xmlns="http://www.w3.org/2000/svg" width="20.2" height="20.212" viewBox="0 0 20.2 20.212"><path d="M18.828,10.688V8.828a.585.585,0,0,0-.586-.586,17.5,17.5,0,0,0-3.406.313,5.275,5.275,0,0,0-2.2-1.273,4.1,4.1,0,1,0-5.273,0,5.275,5.275,0,0,0-2.2,1.273,17.806,17.806,0,0,0-3.406-.312.585.585,0,0,0-.586.586v1.859A1.765,1.765,0,0,0,0,12.344v1.172a1.756,1.756,0,0,0,1.172,1.656v1.859a.585.585,0,0,0,.586.586A13.645,13.645,0,0,1,9.676,19.9a.585.585,0,0,0,.648,0,13.645,13.645,0,0,1,7.918-2.285.585.585,0,0,0,.586-.586V15.172A1.76,1.76,0,0,0,20,13.516V12.344A1.756,1.756,0,0,0,18.828,10.688ZM7.07,4.141A2.93,2.93,0,1,1,10,7.07,2.952,2.952,0,0,1,7.07,4.141ZM1.758,14.1a.585.585,0,0,1-.586-.586V12.344a.586.586,0,1,1,1.172,0v1.172A.585.585,0,0,1,1.758,14.1Zm7.656,4.262a14.691,14.691,0,0,0-7.07-1.91V15.172a1.76,1.76,0,0,0,1.172-1.656V12.344a1.756,1.756,0,0,0-1.172-1.656V9.422a13.236,13.236,0,0,1,7.07,2.066ZM10,10.473A13.8,13.8,0,0,0,6.59,8.906a4.105,4.105,0,0,1,2.238-.664h2.344a4.105,4.105,0,0,1,2.238.664A14.1,14.1,0,0,0,10,10.473Zm7.656,5.98a14.648,14.648,0,0,0-7.07,1.91V11.488a13.236,13.236,0,0,1,7.07-2.066v1.266a1.76,1.76,0,0,0-1.172,1.656v1.172a1.756,1.756,0,0,0,1.172,1.656Zm1.172-2.938a.586.586,0,1,1-1.172,0V12.344a.586.586,0,1,1,1.172,0Z" transform="translate(0.1 0.1)" fill="#fff" stroke="#2a7de1" stroke-width="0.2"/></svg>