<svg xmlns="http://www.w3.org/2000/svg" width="20.413" height="18.811" viewBox="0 0 20.413 18.811"><path d="M20.4,1.2a1.2,1.2,0,0,0-1.2-1.2H1.2A1.2,1.2,0,0,0,0,1.2V12.749a8.069,8.069,0,0,0,.371,2.423l.45,1.439v1.8a.4.4,0,1,0,.8,0V16.547a.417.417,0,0,0-.02-.12l-.47-1.5a7.261,7.261,0,0,1-.335-2.184V9.935a.4.4,0,1,1,.805,0v.976a.4.4,0,1,0,.8,0V9.346a.4.4,0,0,1,.805,0v1.566a.4.4,0,1,0,.8,0V8.839a.4.4,0,1,1,.805,0v2.072a.4.4,0,1,0,.8,0V6.229a.4.4,0,0,1,.805,0v5.795a.4.4,0,0,0,.749.191l.941-1.742a.445.445,0,0,1,.594-.187.435.435,0,0,1,.231.5l-.614,2.523a3.861,3.861,0,0,1-.634,1.367L6.48,16.312a.385.385,0,0,0-.076.235v1.865a.4.4,0,1,0,.8,0V16.679l1.116-1.526a4.625,4.625,0,0,0,.765-1.65l.355-1.463h1.538L11.33,13.5a4.593,4.593,0,0,0,.765,1.65l1.116,1.526v1.734a.4.4,0,1,0,.8,0V16.547a.413.413,0,0,0-.076-.235l-1.192-1.634a3.793,3.793,0,0,1-.634-1.367l-.61-2.527a.445.445,0,0,1,.825-.315l.941,1.742a.4.4,0,0,0,.745-.191V6.229a.4.4,0,0,1,.805,0V10.92a.4.4,0,1,0,.8,0V8.847a.4.4,0,1,1,.805,0V10.92a.4.4,0,0,0,.8,0V9.354a.4.4,0,1,1,.805,0V10.92a.4.4,0,1,0,.8,0V9.943a.4.4,0,0,1,.805,0v2.81a7.261,7.261,0,0,1-.335,2.184l-.47,1.5a.417.417,0,0,0-.02.12v1.857a.4.4,0,1,0,.8,0v-1.8l.45-1.439a8.05,8.05,0,0,0,.371-2.423V1.2Zm-9.688,9.78.064.263H9.628l.064-.263a1.238,1.238,0,0,0-.418-1.251h1.861A1.228,1.228,0,0,0,10.716,10.976Zm8.489-2.232a1.209,1.209,0,0,0-.51.112,1.2,1.2,0,0,0-1.092-.7,1.183,1.183,0,0,0-.542.132A1.2,1.2,0,0,0,16,7.648a1.237,1.237,0,0,0-.4.068V6.229a1.2,1.2,0,0,0-2.4,0v4.216l-.191-.355a1.23,1.23,0,0,0-.833-.626.41.41,0,0,0,.024-.139.4.4,0,0,0-.4-.4H9.047a.4.4,0,0,0-.4.4.449.449,0,0,0,.02.128,1.234,1.234,0,0,0-1.279.638l-.191.355V6.229a1.2,1.2,0,0,0-2.4,0V7.716a1.219,1.219,0,0,0-.4-.068,1.2,1.2,0,0,0-1.06.638,1.183,1.183,0,0,0-.542-.132,1.2,1.2,0,0,0-1.092.7,1.209,1.209,0,0,0-.51-.112,1.237,1.237,0,0,0-.4.068V1.2a.4.4,0,0,1,.4-.4H19.2a.4.4,0,0,1,.4.4V8.812A1.138,1.138,0,0,0,19.205,8.744Z" fill="#fff"/></svg>