<svg xmlns="http://www.w3.org/2000/svg" width="15" height="20.731" viewBox="0 0 15 20.731"><path d="M13.4,8.605a1.767,1.767,0,0,0-1.491.582A1.747,1.747,0,0,0,9.176,8.7a1.783,1.783,0,0,0-.129.13,1.784,1.784,0,0,0-1.154-.9,4.632,4.632,0,1,0-5.028.993V10.91l-1.29.922a2.116,2.116,0,0,0-.781,2.4l1.273,3.818a3.913,3.913,0,0,0,3.717,2.679h5.3A3.923,3.923,0,0,0,15,16.814V10.427A1.816,1.816,0,0,0,13.4,8.605ZM3.445,3.326a1.773,1.773,0,0,0-.579,1.309V6.442a2.53,2.53,0,1,1,3.537,0V4.7a1.816,1.816,0,0,0-1.6-1.822A1.778,1.778,0,0,0,3.445,3.326ZM.672,4.634A3.963,3.963,0,1,1,6.4,8.181V7.3a3.2,3.2,0,1,0-3.537,0v.878A3.979,3.979,0,0,1,.672,4.634ZM14.329,16.814a3.25,3.25,0,0,1-3.246,3.246h-5.3A3.242,3.242,0,0,1,2.7,17.84L1.431,14.022a1.448,1.448,0,0,1,.534-1.644l.9-.643v2.93a.336.336,0,0,0,.671,0V4.634A1.1,1.1,0,0,1,4.743,3.543,1.139,1.139,0,0,1,5.731,4.7v7.1a.336.336,0,1,0,.671,0V9.649a1.1,1.1,0,0,1,.359-.812,1.087,1.087,0,0,1,.847-.28A1.139,1.139,0,0,1,8.6,9.711v2.446a.336.336,0,1,0,.671,0V10.008A1.1,1.1,0,0,1,9.627,9.2a1.087,1.087,0,0,1,.847-.28,1.139,1.139,0,0,1,.988,1.154v2.445a.336.336,0,1,0,.671,0V10.366a1.1,1.1,0,0,1,.359-.812,1.087,1.087,0,0,1,.847-.28,1.139,1.139,0,0,1,.988,1.154l0,6.386Z" fill="#fff"/></svg>