<svg xmlns="http://www.w3.org/2000/svg" viewBox="0 0 26.331 26.289"><defs><style>.a{fill:#f47074;}</style></defs><g transform="translate(0.002 0.002)"><path class="a" d="M.94,26.287H25.389a.941.941,0,0,0,.841-1.361L14.006.476a.98.98,0,0,0-1.683,0L.1,24.926A.941.941,0,0,0,.94,26.287ZM13.165,3l10.7,21.406H2.461Z" transform="translate(0 0)"/><path class="a" d="M222.821,169.91a.94.94,0,0,0-.941.941v6.583a.941.941,0,1,0,1.881,0V170.85A.941.941,0,0,0,222.821,169.91Z" transform="translate(-209.656 -160.55)"/><path class="a" d="M222.821,357.64a.94.94,0,0,0-.941.941v.941a.941.941,0,1,0,1.881,0v-.941A.941.941,0,0,0,222.821,357.64Z" transform="translate(-209.656 -337.936)"/></g></svg>